<?xml version="1.0" standalone="no"?><!DOCTYPE svg PUBLIC "-//W3C//DTD SVG 1.1//EN" "http://www.w3.org/Graphics/SVG/1.1/DTD/svg11.dtd"><svg class="icon" width="200px" height="200.00px" viewBox="0 0 1024 1024" version="1.1" xmlns="http://www.w3.org/2000/svg"><path  d="M403.84343333 489.81876666c-81.6957-38.1123-125.2475-99.3597-130.688-183.7763 10.88-138.8483 92.5604-212.3684 245.0401-220.544 147.0075 10.8964 227.328 84.4165 240.9595 220.544-5.4559 87.1363-46.3043 148.3837-122.5277 183.7763 100.736 38.1276 153.8243 111.6477 159.2801 220.544-8.1756 138.8636-100.7524 211.0075-277.7119 216.448-179.712-5.4395-272.2724-80.3041-277.7119-224.6236C248.64393333 596.01066666 303.10743333 525.21026666 403.84343333 489.81876666zM514.11593333 522.49056666c-108.9116 5.4559-168.8156 65.3599-179.6956 179.6956 10.88 98.0163 72.1439 151.1199 183.7763 159.2801 111.616-8.1603 172.8799-58.5277 183.7752-151.1035C693.79513333 590.57016666 631.17143333 527.94636666 514.11593333 522.49056666zM518.19553333 159.01866666c-89.856 5.4395-138.8636 51.7284-147.0239 138.8483 2.7197 100.7524 51.7284 153.8396 147.0239 159.2801 89.8396-2.7197 137.4874-53.0883 142.9432-151.1035C652.96313333 216.20296666 605.31543333 167.19426666 518.19553333 159.01866666z" /></svg>
