<?xml version="1.0" standalone="no"?><!DOCTYPE svg PUBLIC "-//W3C//DTD SVG 1.1//EN" "http://www.w3.org/Graphics/SVG/1.1/DTD/svg11.dtd"><svg class="icon" width="200px" height="200.00px" viewBox="0 0 1024 1024" version="1.1" xmlns="http://www.w3.org/2000/svg"><path  d="M232.30803333 906.39426666l0-53.103616c51.7284-108.8963 137.4884-206.9115 257.2964-294.0477 122.5114-89.8396 182.4154-171.52 179.6956-245.0401-2.7197-98.0163-58.5441-148.3837-167.4394-151.1035-84.4165 5.4559-141.5844 58.5441-171.5364 159.2801l-81.6804-40.8484C294.93183333 148.12226666 384.78783333 82.77876666 518.19553333 85.49856666c152.4634 5.4559 234.1437 77.6161 245.0391 216.4644 8.1603 106.1765-59.904 208.2724-204.2081 306.2876-111.6314 81.6957-185.1351 157.9203-220.5276 228.7043l428.81536 0 0 69.439488L232.30805333 906.39435466z" /></svg>
