<?xml version="1.0" standalone="no"?><!DOCTYPE svg PUBLIC "-//W3C//DTD SVG 1.1//EN" "http://www.w3.org/Graphics/SVG/1.1/DTD/svg11.dtd"><svg class="icon" width="200px" height="200.00px" viewBox="0 0 1024 1024" version="1.1" xmlns="http://www.w3.org/2000/svg"><path  d="M767.31533333 269.29016666l-81.6804 28.5757c-21.7917-95.2801-73.5201-141.568-155.1831-138.8483-136.1439 2.7197-204.2081 115.712-204.2081 338.9757 43.5517-73.5037 114.3521-111.6324 212.3674-114.3521 152.4644 8.1603 234.1437 96.6564 245.0401 265.4556-10.8964 171.5364-96.6564 264.0957-257.2954 277.7119-193.3117 0-289.9517-132.0479-289.9517-396.1436 2.7197-296.7675 102.0959-445.1676 298.1274-445.1676C654.32303333 90.95436666 731.92383333 152.21826666 767.31533333 269.29016666zM330.32433333 604.17096666c2.7197 166.0805 68.0643 251.8559 196.0325 257.2964 103.4557-5.4395 157.9192-73.5201 163.3597-204.2081-2.7197-130.688-57.1843-197.3924-163.3597-200.1121C420.18033333 462.60296666 354.83583333 511.61056666 330.32433333 604.17096666z" /></svg>
