<?xml version="1.0" standalone="no"?><!DOCTYPE svg PUBLIC "-//W3C//DTD SVG 1.1//EN" "http://www.w3.org/Graphics/SVG/1.1/DTD/svg11.dtd"><svg class="icon" width="200px" height="200.00px" viewBox="0 0 1024 1024" version="1.1" xmlns="http://www.w3.org/2000/svg"><path  d="M530.45183333 371.38706666C688.35563333 379.56266666 772.75583333 469.40226666 783.65113333 640.92226666c-5.4395 185.1515-93.9356 280.448-265.4556 285.8885-155.1995 0-247.7599-73.5037-277.7119-220.544l89.8396-24.4961c16.3359 114.3521 76.2399 172.8963 179.6956 175.616 117.0719-5.4395 178.3357-74.88 183.7916-208.2877-5.4559-125.2475-65.3599-190.592-179.6956-196.0325-84.4165 2.7197-144.3041 32.6717-179.6956 89.8396l-61.2639-12.2399L322.16403333 101.83436666l420.655104 0 0 81.680384-351.232 0-24.4961 249.1361C416.08433333 391.81896666 470.54783333 371.38706666 530.45183333 371.38706666z" /></svg>
