<?xml version="1.0" standalone="no"?><!DOCTYPE svg PUBLIC "-//W3C//DTD SVG 1.1//EN" "http://www.w3.org/Graphics/SVG/1.1/DTD/svg11.dtd"><svg t="1602767890680" class="icon" viewBox="0 0 1024 1024" version="1.1" xmlns="http://www.w3.org/2000/svg" p-id="3439" xmlns:xlink="http://www.w3.org/1999/xlink" width="200" height="200"><defs><style type="text/css"></style></defs><path d="M512.902866 0.149695C776.539805 99.464981 937.249994 415.468161 800.014327 671.88217L464.14809 336.015933l128.207004-128.207005-79.452228-79.452228c-45.143311 43.337579-115.566877 52.366241-162.515921 32.503184L95.778668 415.468161l144.458597 144.458597 95.70382-95.703821 335.866238 335.866238c-164.321654 90.286623-391.843944 61.394904-557.97133-111.955413l-81.257961 81.257961c23.474522 34.308917 45.143311 65.006369 70.423566 90.286623l-9.028662 9.028662c-5.417197-1.805732-9.028662-1.805732-14.44586-1.805732-45.143311-1.805732-79.452228 36.114649-79.452228 79.452228 0 43.337579 34.308917 77.646496 77.646495 77.646496s79.452228-34.308917 79.452229-79.452228c0-5.417197 0-9.028662-1.805733-14.44586l12.640127-12.640127c193.213373 130.012737 404.484071 146.264329 632.006361 10.834395l93.898088 93.898088 128.207005-126.401273-93.898088-95.70382c270.859869-408.095536-90.286623-808.968142-415.318466-799.93948z m0 0" p-id="3440"></path></svg>