<?xml version="1.0" standalone="no"?><!DOCTYPE svg PUBLIC "-//W3C//DTD SVG 1.1//EN" "http://www.w3.org/Graphics/SVG/1.1/DTD/svg11.dtd"><svg t="1603693396248" class="icon" viewBox="0 0 1025 1024" version="1.1" xmlns="http://www.w3.org/2000/svg" p-id="1715" xmlns:xlink="http://www.w3.org/1999/xlink" width="200.1953125" height="200"><defs><style type="text/css"></style></defs><path d="M524.619718 3.605634l-5.40845-3.605634c9.014085 12.619718 9.014085 7.211268 5.40845 3.605634z m465.126761 236.169014c9.014085 0 16.225352-3.605634 21.633803-9.014085 5.408451-5.408451 9.014085-14.422535 9.014084-21.633802V39.661972c0-18.028169-14.422535-32.450704-32.450704-32.450704h-169.464789c-18.028169 0-32.450704 14.422535-32.450704 32.450704v52.28169H232.56338V39.661972c0-18.028169-14.422535-32.450704-32.450704-32.450704H32.450704C14.422535 7.211268 0 21.633803 0 39.661972v167.661972c0 18.028169 14.422535 32.450704 32.450704 32.450704h52.28169v551.661972H32.450704c-18.028169 0-32.450704 14.422535-32.450704 32.450704V991.549296c0 18.028169 14.422535 32.450704 32.450704 32.450704h169.464789c9.014085 0 16.225352-3.605634 21.633803-9.014085 5.408451-5.408451 9.014085-14.422535 9.014084-21.633802V937.464789h557.070423v52.28169c0 18.028169 14.422535 32.450704 32.450704 32.450704H991.549296c18.028169 0 32.450704-14.422535 32.450704-32.450704v-167.661972c0-18.028169-14.422535-32.450704-32.450704-32.450704h-54.084507V346.140845v-108.169014l52.28169 1.802817zM147.830986 461.521127c1.802817-1.802817 3.605634-1.802817 5.408451-3.605634L457.915493 155.042254h146.028169l-454.309859 450.704225v-144.225352z m52.28169-221.746479c18.028169 0 32.450704-14.422535 32.450704-32.450704V155.042254h135.211268L147.830986 373.183099v-133.408451h52.28169zM147.830986 695.887324l544.450704-540.84507h95.549296v39.661971L187.492958 791.43662H147.830986v-95.549296z m726.535211-131.605634l-306.478873 302.87324c-1.802817 1.802817-3.605634 5.408451-5.408451 7.211267h-146.028169l456.112676-452.507042v142.422535z m-52.28169 227.15493c-18.028169 0-32.450704 14.422535-32.450704 32.450704v52.28169h-138.816902l223.549296-221.746479v137.014085h-52.28169z m52.28169-459.71831L326.309859 874.366197h-93.746479v-39.661972l602.140845-596.732394h39.661972v93.746479z m0 0" p-id="1716"></path></svg>