<?xml version="1.0" standalone="no"?><!DOCTYPE svg PUBLIC "-//W3C//DTD SVG 1.1//EN" "http://www.w3.org/Graphics/SVG/1.1/DTD/svg11.dtd"><svg t="1602324888610" class="icon" viewBox="0 0 1025 1024" version="1.1" xmlns="http://www.w3.org/2000/svg" p-id="4776" xmlns:xlink="http://www.w3.org/1999/xlink" width="200.1953125" height="200"><defs><style type="text/css"></style></defs><path d="M716.9806 386.483245c-124.613757 0-236.585538 74.045855-283.541447 189.62963-46.955908 115.583774-21.671958 247.421517 66.82187 335.915344 88.493827 88.493827 220.33157 113.777778 335.915344 66.821869 115.583774-46.955908 189.62963-158.92769 189.629629-283.541446-1.805996-171.569665-139.061728-308.825397-308.825396-308.825397z m111.971781 205.883598l-55.985891 55.985891h23.477954c12.641975 0 23.477954 10.835979 23.477955 23.477954 0 12.641975-10.835979 23.477954-23.477955 23.477954H740.458554v30.70194h57.791887c12.641975 0 23.477954 10.835979 23.477954 23.477954 0 12.641975-10.835979 23.477954-23.477954 23.477954H740.458554v66.82187c0 12.641975-10.835979 23.477954-23.477954 23.477954-12.641975 0-23.477954-10.835979-23.477954-23.477954v-66.82187h-57.791888c-12.641975 0-23.477954-10.835979-23.477954-23.477954 0-12.641975 10.835979-23.477954 23.477954-23.477954h57.791888v-30.70194h-57.791888c-12.641975 0-23.477954-10.835979-23.477954-23.477954 0-12.641975 10.835979-23.477954 23.477954-23.477954h23.477955l-54.179895-55.985891c-9.029982-9.029982-9.029982-25.283951 0-34.313933s25.283951-9.029982 34.313933 0l79.463845 79.463845 79.463845-79.463845c9.029982-9.029982 25.283951-9.029982 34.313933 0 5.417989 9.029982 5.417989 25.283951-3.611993 34.313933z m0 0M164.345679 23.477954h599.590829c39.731922 0 59.597884 19.865961 59.597884 59.597884v23.477954c0 39.731922-19.865961 59.597884-59.597884 59.597883H164.345679c-39.731922 0-59.597884-19.865961-59.597884-59.597883V83.075838c0-39.731922 19.865961-59.597884 59.597884-59.597884z m0 0M720.592593 292.571429v7.223985c0 5.417989 0 10.835979-1.805997 18.059965h-1.805996c-66.821869 0-131.837743 18.059965-189.62963 50.567901H68.627866c-37.925926 0-68.627866-30.70194-68.627866-68.627866v-7.223985c0-18.059965 7.223986-36.119929 19.865961-48.761905 12.641975-12.641975 30.70194-19.865961 48.761905-19.865961h583.336861c37.925926 0 68.627866 30.70194 68.627866 68.627866z m-267.287478 131.837742c-41.537919 39.731922-72.239859 90.299824-92.10582 144.479718H68.627866c-37.925926 0-68.627866-30.70194-68.627866-68.627866v-7.223986c0-18.059965 7.223986-36.119929 19.865961-48.761905 12.641975-12.641975 30.70194-19.865961 48.761905-19.865961h384.677249z m-106.553792 346.751323H173.375661c-37.925926 0-68.627866-30.70194-68.627866-68.627866v-7.223986c0-18.059965 7.223986-36.119929 19.865962-48.761905 12.641975-12.641975 30.70194-19.865961 48.761904-19.865961h173.375662c-3.611993 21.671958-5.417989 45.149912-5.41799 66.82187-1.805996 27.089947 1.805996 52.373898 5.41799 77.657848z m115.583774 200.465608H68.627866C30.70194 971.626102 0 940.924162 0 902.998236v-7.223986c0-37.925926 30.70194-68.627866 68.627866-68.627866h294.377425c21.671958 54.179894 55.985891 104.747795 99.329806 144.479718z m0 0" p-id="4777"></path></svg>