<?xml version="1.0" standalone="no"?><!DOCTYPE svg PUBLIC "-//W3C//DTD SVG 1.1//EN" "http://www.w3.org/Graphics/SVG/1.1/DTD/svg11.dtd"><svg t="1602324838548" class="icon" viewBox="0 0 1024 1024" version="1.1" xmlns="http://www.w3.org/2000/svg" p-id="4649" xmlns:xlink="http://www.w3.org/1999/xlink" width="200" height="200"><defs><style type="text/css"></style></defs><path d="M927.549296 798.647887c-9.014085 0-16.225352 1.802817-25.239437 5.408451-43.267606 16.225352-82.929577 32.450704-124.394366 48.676056-19.830986 9.014085-41.464789 16.225352-63.098592 23.43662-16.225352 7.211268-36.056338 16.225352-52.28169 16.225352-46.873239 0-194.704225-41.464789-221.746479-52.28169-39.661972-16.225352-19.830986-66.704225 16.225353-66.704225 3.605634 0 7.211268 0 10.816901 1.802817 45.070423 10.816901 142.422535 28.84507 205.521127 45.070422 5.408451 1.802817 10.816901 1.802817 16.225352 1.802817 52.28169 0 77.521127-68.507042 25.239436-81.126761-54.084507-16.225352-279.43662-88.338028-324.507042-88.338028h-7.211267c-23.43662 3.605634-46.873239 12.619718-68.507043 19.830986-21.633803 9.014085-45.070423 16.225352-66.704225 25.239437l-37.859155 16.225352c-14.422535 5.408451-27.042254 10.816901-41.464789 16.225352-36.056338 16.225352-73.915493 30.647887-108.169014 46.87324-5.408451 3.605634-12.619718 5.408451-16.225352 9.014084-41.464789 16.225352 16.225352 214.535211 72.112676 214.535211 3.605634 0 5.408451 0 9.014085-1.802817 59.492958-21.633803 115.380282-50.478873 142.422535-54.084507h1.802817c37.859155 0 288.450704 75.71831 320.901408 79.323944h1.802817c41.464789 0 299.267606-115.380282 342.535211-131.605634 55.887324-23.43662 43.267606-93.746479-7.211267-93.746479zM846.422535 0h-77.521127v182.084507l77.521127 77.521127V0z m0 0" p-id="4650"></path><path d="M491.267606 19.830986l-468.732395 380.394366v108.169014l118.985916-97.352112v254.197183c16.225352-5.408451 30.647887-10.816901 46.873239-16.225352 43.267606-16.225352 79.323944-30.647887 108.169014-41.464789 52.28169-18.028169 73.915493-19.830986 86.535212-21.633803h1.802816c16.225352 0 43.267606 3.605634 122.59155 25.239437 48.676056 14.422535 104.56338 30.647887 147.830986 45.070422 30.647887 10.816901 57.690141 16.225352 72.112676 21.633803 25.239437 7.211268 46.873239 21.633803 59.492957 43.267606 10.816901 16.225352 16.225352 34.253521 16.225353 52.28169 16.225352-5.408451 28.84507-12.619718 41.464788-16.225352V389.408451l156.845071 117.183098v-108.169014l-510.197183-378.591549z m0 0" p-id="4651"></path></svg>