<?xml version="1.0" standalone="no"?><!DOCTYPE svg PUBLIC "-//W3C//DTD SVG 1.1//EN" "http://www.w3.org/Graphics/SVG/1.1/DTD/svg11.dtd"><svg t="1602325039969" class="icon" viewBox="0 0 1024 1024" version="1.1" xmlns="http://www.w3.org/2000/svg" p-id="5156" xmlns:xlink="http://www.w3.org/1999/xlink" width="200" height="200"><defs><style type="text/css"></style></defs><path d="M178.793651 666.412698L86.687831 859.654321c-7.223986 10.835979-3.611993 23.477954 3.611993 34.313933 7.223986 10.835979 19.865961 14.447972 30.70194 14.447972l133.643739-19.865961 68.627866 115.583774c7.223986 10.835979 16.253968 16.253968 30.70194 16.253968h3.611993c14.447972 0 23.477954-7.223986 30.70194-19.865961L476.783069 812.698413c-119.195767-3.611993-222.137566-61.40388-297.989418-146.285715zM668.218695 1024c1.805996 0 1.805996 0 0 0 14.447972 0 23.477954-7.223986 30.70194-16.253968l68.627866-115.583775 133.643739 19.865962h7.223986c16.253968 0 34.313933-14.447972 34.313933-34.313933 0-7.223986-3.611993-14.447972-7.223986-19.865961l-88.493827-191.435627c-75.851852 84.881834-176.987654 139.061728-296.183422 149.897708l88.493827 187.823633c3.611993 12.641975 18.059965 19.865961 28.895944 19.865961z m220.33157-648.352734C888.550265 167.957672 722.398589 0 514.708995 0 305.213404 0 139.061728 167.957672 139.061728 375.647266S307.0194 751.294533 514.708995 751.294533s373.84127-167.957672 373.84127-375.647267zM420.797178 567.082892c-10.835979 7.223986-23.477954 3.611993-37.925926-3.611993-10.835979-7.223986-16.253968-19.865961-14.447972-34.313933l16.253969-99.329806-72.239859-72.239858c-10.835979-10.835979-14.447972-23.477954-7.223986-34.313933 3.611993-14.447972 14.447972-19.865961 27.089947-23.477955l99.329806-14.447971 45.149912-88.493827c7.223986-10.835979 16.253968-19.865961 30.70194-19.865962 14.447972 0 23.477954 7.223986 30.70194 19.865962l45.149912 92.10582 99.329806 14.447971c16.253968 3.611993 27.089947 10.835979 34.313933 23.477955 3.611993 14.447972 0 27.089947-10.835979 34.313933l-72.239859 72.239858 16.253968 99.329806c3.611993 14.447972-3.611993 27.089947-14.447972 34.313933-7.223986 3.611993-14.447972 7.223986-19.865961 7.223986-7.223986 0-10.835979 0-16.253968-3.611993l-88.493827-50.567901-90.299824 46.955908z m0 0" p-id="5157"></path></svg>