<?xml version="1.0" standalone="no"?><!DOCTYPE svg PUBLIC "-//W3C//DTD SVG 1.1//EN" "http://www.w3.org/Graphics/SVG/1.1/DTD/svg11.dtd"><svg t="1637495910590" class="icon" viewBox="0 0 1024 1024" version="1.1" xmlns="http://www.w3.org/2000/svg" p-id="14361" xmlns:xlink="http://www.w3.org/1999/xlink" width="48" height="48"><defs><style type="text/css"></style></defs><path d="M530.496 209.066667L925.866667 451.029333V507.733333l-38.4-23.530666v290.688h-138.538667v51.178666h-605.866667V516.565333L93.866667 548.736V490.666667l352-228.181334 350.506666 227.584v58.666667l-47.445333-31.146667v214.634667H844.8V458.048l-314.346667-192.746667-13.717333 8.149334-38.549333-27.584L530.496 209.066667zM445.866667 318.72L185.728 488.661333v294.698667h520.533333V489.578667L445.866667 318.698667z m211.2 347.349333v46.933334H234.666667v-46.933334h422.4z m0-93.866666v46.933333H234.666667v-46.933333h422.4z m-140.8-93.866667v46.933333h-140.8v-46.933333h140.8z" p-id="14362" fill="#0e932e"></path></svg>