<?xml version="1.0" standalone="no"?><!DOCTYPE svg PUBLIC "-//W3C//DTD SVG 1.1//EN" "http://www.w3.org/Graphics/SVG/1.1/DTD/svg11.dtd"><svg t="1602768072403" class="icon" viewBox="0 0 1024 1024" version="1.1" xmlns="http://www.w3.org/2000/svg" p-id="3951" xmlns:xlink="http://www.w3.org/1999/xlink" width="200" height="200"><defs><style type="text/css"></style></defs><path d="M43.343915 480.395062c-18.059965 0-34.313933-10.835979-39.731922-28.895944-5.417989-18.059965 0-36.119929 14.447972-46.955908l442.469136-343.13933a86.687831 86.687831 0 0 1 104.747795 0l442.469136 343.13933c14.447972 10.835979 19.865961 30.70194 14.447972 46.955908-5.417989 18.059965-21.671958 28.895944-39.731923 28.895944H921.058201v415.379188c0 46.955908-37.925926 84.881834-84.881834 84.881835H187.823633c-46.955908 0-84.881834-37.925926-84.881834-84.881835v-415.379188H43.343915z m664.606702-54.179894c-21.671958-21.671958-50.567901-34.313933-81.269841-34.313933-30.70194 0-59.597884 12.641975-81.269841 34.313933L502.067019 469.559083l-43.343915-45.149912c-21.671958-21.671958-50.567901-34.313933-81.269841-34.313933s-59.597884 12.641975-81.269841 34.313933c-45.149912 46.955908-45.149912 119.195767 0 166.151676l164.345679 167.957672c10.835979 10.835979 25.283951 18.059965 41.537918 18.059964 16.253968 0 30.70194-5.417989 41.537919-18.059964l164.345679-167.957672c45.149912-45.149912 45.149912-119.195767 0-164.345679z m0 0" p-id="3952"></path></svg>