<?xml version="1.0" standalone="no"?><!DOCTYPE svg PUBLIC "-//W3C//DTD SVG 1.1//EN" "http://www.w3.org/Graphics/SVG/1.1/DTD/svg11.dtd"><svg t="1602768389605" class="icon" viewBox="0 0 1024 1024" version="1.1" xmlns="http://www.w3.org/2000/svg" p-id="4723" xmlns:xlink="http://www.w3.org/1999/xlink" width="200" height="200"><defs><style type="text/css"></style></defs><path d="M511.097002 0C794.638448 0 1024 229.361552 1024 511.097002 1024 794.638448 794.638448 1024 511.097002 1024 229.361552 1024 0 794.638448 0 511.097002 0 229.361552 229.361552 0 511.097002 0z m281.735449 292.571429H722.398589c-14.447972 0-30.70194 7.223986-39.731922 19.865961l-236.585538 325.079365-106.553792-148.091711c-9.029982-12.641975-23.477954-19.865961-39.731923-19.865961h-70.433862c-3.611993 0-9.029982 1.805996-10.835979 7.223986-1.805996 3.611993-1.805996 9.029982 1.805997 12.641975l187.823633 258.257496c19.865961 27.089947 57.791887 27.089947 77.657848 0l316.049383-437.051147c1.805996-3.611993 3.611993-9.029982 1.805996-12.641975-1.805996-3.611993-7.223986-5.417989-10.835979-5.417989z m0 0" p-id="4724"></path></svg>