<?xml version="1.0" standalone="no"?><!DOCTYPE svg PUBLIC "-//W3C//DTD SVG 1.1//EN" "http://www.w3.org/Graphics/SVG/1.1/DTD/svg11.dtd"><svg t="1602768028019" class="icon" viewBox="0 0 1024 1024" version="1.1" xmlns="http://www.w3.org/2000/svg" p-id="3567" xmlns:xlink="http://www.w3.org/1999/xlink" width="200" height="200"><defs><style type="text/css"></style></defs><path d="M344.945326 599.590829c9.029982-3.611993 19.865961-7.223986 30.70194-14.447972 18.059965-10.835979 32.507937-36.119929-1.805996-65.015873-111.971781-162.539683-70.433862-269.093474-54.179894-310.631393-16.253968-5.417989-32.507937-9.029982-48.761905-9.029983h-5.41799c-106.553792 0-135.449735 97.52381-137.255731 153.509701-1.805996 130.031746 77.657848 180.599647 77.657848 180.599647s5.417989 7.223986 5.417989 27.089947c0 3.611993-3.611993 18.059965-7.223986 21.671958C160.733686 619.45679 14.447972 657.382716 3.611993 735.040564c-5.417989 21.671958-1.805996 45.149912-1.805997 66.82187 23.477954 18.059965 101.135802 34.313933 101.135803 34.313933s5.417989-19.865961 12.641975-52.373898c9.029982-46.955908 72.239859-124.613757 229.361552-184.21164z m675.442681 133.643739c-10.835979-77.657848-160.733686-115.583774-205.883598-149.897707-5.417989-3.611993-9.029982-18.059965-9.029982-21.671958 0-19.865961 5.417989-27.089947 5.417989-27.089947s79.463845-52.373898 79.463845-180.599647c-1.805996-54.179894-36.119929-153.5097-140.867725-153.509701h-5.417989c-23.477954 0-41.537919 3.611993-57.791887 10.835979 21.671958 75.851852 48.761905 214.91358-63.209877 308.825397-45.149912 66.821869 102.941799 106.553792 79.463845 95.717813 133.643739 61.40388 169.763668 106.553792 178.793651 155.315697 9.029982 39.731922 12.641975 65.015873 12.641975 65.015873s101.135802-16.253968 126.419753-34.313933c1.805996-21.671958 5.417989-45.149912 0-68.627866z m-435.24515-146.285714c-5.417989-5.417989-9.029982-21.671958-9.029982-27.089947 0-25.283951 5.417989-32.507937 5.417989-32.507937s99.329806-54.179894 97.52381-225.749559c-3.611993-70.433862-45.149912-191.435626-173.375662-191.435626h-7.223986c-133.643739 0-169.763668 122.80776-173.375661 189.629629-1.805996 160.733686 97.52381 225.749559 97.52381 225.74956s12.641975 14.447972 12.641975 37.925925c0 5.417989-9.029982 16.253968-16.253968 21.671958-54.179894 45.149912-252.839506 90.299824-265.481482 184.21164-9.029982 41.537919-68.627866 104.747795 126.419753 131.837743 54.179894 7.223986 126.419753 10.835979 225.749559 10.835979 453.305115 0 359.393298-88.493827 346.751323-140.867725-12.641975-93.911817-211.301587-140.867725-267.287478-184.21164z m0 0" p-id="3568"></path></svg>