<?xml version="1.0" standalone="no"?><!DOCTYPE svg PUBLIC "-//W3C//DTD SVG 1.1//EN" "http://www.w3.org/Graphics/SVG/1.1/DTD/svg11.dtd"><svg t="1602767662100" class="icon" viewBox="0 0 1024 1024" version="1.1" xmlns="http://www.w3.org/2000/svg" p-id="1695" xmlns:xlink="http://www.w3.org/1999/xlink" width="200" height="200"><defs><style type="text/css"></style></defs><path d="M195.397621 940.924162c-1.805996-37.925926 184.21164-37.925926 213.107584-72.239859 30.70194-32.507937 93.911817-74.045855 216.719577-74.045855 68.627866 0 133.643739-10.835979 189.629629-25.283951 45.149912-14.447972 86.687831-32.507937 122.80776-59.597883 61.40388-43.343915 84.881834-86.687831 84.881835-90.299824 0-1.805996 0-1.805996 1.805996-5.417989V95.717813c0-5.417989-1.805996-7.223986-7.223986-10.835979-5.417989-1.805996-10.835979-1.805996-14.447972 0-1.805996 0-164.345679 110.165785-269.093474 110.165785h-18.059965c-43.343915-5.417989-75.851852-19.865961-111.971781-36.119929-52.373898-21.671958-106.553792-45.149912-187.823633-45.149912h-18.059965c-135.449735 5.417989-247.421517 37.925926-281.73545 50.567901L96.067815 144.479718c-3.611993-5.417989-10.835979-7.223986-16.253968-5.41799L11.185981 167.957672c-7.223986 5.417989-12.641975 12.641975-10.835979 18.059965m711.56261 431.633157l-54.179894 54.179894-37.925926-37.925926c-93.911817 55.985891-184.21164 50.567901-265.481481-5.41799l-5.41799 5.41799v5.417989c0 18.059965-14.447972 32.507937-32.507936 32.507937s-32.507937-14.447972-32.507937-32.507937 14.447972-32.507937 32.507937-32.507936h5.417989s1.805996-1.805996 5.41799-1.805997c-10.835979-10.835979-19.865961-23.477954-28.895944-37.925926l32.507937-32.507936c72.239859 74.045855 166.151675 84.881834 234.779541 45.149912l-140.867725-140.867725-41.537919 41.537919-59.597883-65.015873 106.553792-106.553792c19.865961 7.223986 48.761905 5.417989 68.627866-12.641975l32.507936 32.507936-55.985891 54.179894 140.867725 140.867725c59.597884-106.553792-10.835979-240.197531-121.001763-281.73545 135.449735-5.417989 288.959436 164.345679 173.375661 335.915344l43.343915 39.731923z m0 0" p-id="1696"></path></svg>