<?xml version="1.0" standalone="no"?><!DOCTYPE svg PUBLIC "-//W3C//DTD SVG 1.1//EN" "http://www.w3.org/Graphics/SVG/1.1/DTD/svg11.dtd"><svg t="1602321560208" class="icon" viewBox="0 0 1024 1024" version="1.1" xmlns="http://www.w3.org/2000/svg" p-id="1576" xmlns:xlink="http://www.w3.org/1999/xlink" width="200" height="200"><defs><style type="text/css"></style></defs><path d="M511.097002 0c281.73545 0 511.097002 231.167549 511.097002 511.097002 0 281.73545-231.167549 511.097002-511.097002 511.097002C231.167549 1024 0 792.832451 0 511.097002 0 231.167549 231.167549 0 511.097002 0z m52.373897 317.855379h-88.493827c-7.223986 0-10.835979 3.611993-10.835979 7.223986l-88.493827 388.289242c0 3.611993 0 7.223986 3.611993 10.835979l142.673722 99.329806c3.611993 3.611993 10.835979 3.611993 14.447971 0l128.22575-99.329806c3.611993-3.611993 3.611993-7.223986 3.611993-10.835979L574.306878 325.079365c0-3.611993-7.223986-7.223986-10.835979-7.223986z m50.567902-79.463845H424.409171c-3.611993 0-7.223986 3.611993-10.835979 7.223986-3.611993 3.611993 0 7.223986 0 10.835979l32.507937 46.955908c3.611993 3.611993 7.223986 3.611993 10.835979 3.611993H577.918871c3.611993 0 7.223986 0 10.835979-3.611993l36.11993-46.955908c3.611993-3.611993 3.611993-10.835979-3.611993-14.447972l-7.223986-3.611993z m0 0" p-id="1577"></path></svg>