<?xml version="1.0" standalone="no"?><!DOCTYPE svg PUBLIC "-//W3C//DTD SVG 1.1//EN" "http://www.w3.org/Graphics/SVG/1.1/DTD/svg11.dtd"><svg t="1602768051797" class="icon" viewBox="0 0 1024 1024" version="1.1" xmlns="http://www.w3.org/2000/svg" p-id="3695" xmlns:xlink="http://www.w3.org/1999/xlink" width="200" height="200"><defs><style type="text/css"></style></defs><path d="M1018.582011 377.453263c-10.835979-34.313933-43.343915-63.209877-81.269842-66.82187l-232.973545-36.119929-99.329806-216.719577c-16.253968-34.313933-54.179894-57.791887-92.10582-57.791887-39.731922 0-74.045855 23.477954-92.10582 57.791887l-99.329806 218.525573-232.973545 36.11993c-37.925926 7.223986-70.433862 32.507937-81.269841 70.433862-14.447972 37.925926-5.417989 75.851852 23.477954 104.747796l171.569665 173.375661L162.539683 904.804233c-7.223986 37.925926 9.029982 75.851852 41.537918 99.329806 32.507937 23.477954 74.045855 25.283951 108.359789 7.223986l198.659612-111.971782 198.659612 111.971782c34.313933 18.059965 75.851852 16.253968 108.359788-7.223986 32.507937-21.671958 48.761905-59.597884 41.537919-99.329806l-39.731922-245.61552 171.569664-176.987655c28.895944-27.089947 37.925926-66.821869 27.089948-104.747795z m-702.532628 122.80776c-5.417989-43.343915 63.209877-43.343915 65.015873 0 9.029982 160.733686 258.257496 160.733686 267.287478 0 1.805996-41.537919 70.433862-41.537919 66.821869 0-14.447972 243.809524-386.483245 243.809524-399.12522 0z m0 0" p-id="3696"></path></svg>