<?xml version="1.0" standalone="no"?><!DOCTYPE svg PUBLIC "-//W3C//DTD SVG 1.1//EN" "http://www.w3.org/Graphics/SVG/1.1/DTD/svg11.dtd"><svg t="1602324899649" class="icon" viewBox="0 0 1024 1024" version="1.1" xmlns="http://www.w3.org/2000/svg" p-id="4902" xmlns:xlink="http://www.w3.org/1999/xlink" width="200" height="200"><defs><style type="text/css"></style></defs><path d="M959.073704 763.936508c12.641975-21.671958 23.477954-45.149912 32.507937-68.627866l3.611993-12.641975c9.029982-23.477954 16.253968-48.761905 19.865961-72.239859v-10.835979c34.313933-200.465608-54.179894-400.931217-223.943563-512.902998-169.763668-111.971781-390.095238-111.971781-561.664903 0C61.493457 195.047619-27.00037 397.319224 7.313563 597.784832v10.835979c5.417989 25.283951 12.641975 48.761905 19.865962 72.239859l3.611992 12.641976c9.029982 23.477954 19.865961 46.955908 32.507937 68.627865l5.417989 7.223986c92.10582 155.315697 260.063492 251.03351 440.66314 251.03351 180.599647 0 348.557319-95.717813 440.663139-251.03351l9.029982-5.417989zM512.992576 75.851852c242.003527 0 438.857143 195.047619 438.857143 437.051146 0 21.671958-1.805996 43.343915-5.41799 63.209877v10.835979c-3.611993 19.865961-9.029982 41.537919-16.253968 61.40388s-14.447972 39.731922-25.283951 59.597883c-10.835979 19.865961-21.671958 37.925926-34.313933 55.985891-52.373898-68.627866-122.80776-121.001764-204.077601-149.897707-93.911817 57.791887-214.91358 57.791887-308.825397 0-81.269841 30.70194-151.703704 84.881834-202.271605 153.5097-12.641975-18.059965-23.477954-36.119929-34.313933-55.985891-9.029982-19.865961-18.059965-39.731922-25.283951-59.597883-7.223986-21.671958-12.641975-43.343915-16.253968-66.82187v-10.835979c-3.611993-19.865961-5.417989-41.537919-7.223986-61.40388 0-115.583774 46.955908-227.555556 128.22575-308.825397C285.43702 121.001764 397.408801 75.851852 512.992576 75.851852z m0 0" p-id="4903"></path><path d="M294.467002 366.617284c0 77.657848 41.537919 149.897707 110.165785 189.62963 68.627866 39.731922 151.703704 39.731922 218.525573 0 68.627866-39.731922 110.165785-111.971781 110.165785-189.62963S691.786226 216.719577 623.15836 176.987654c-68.627866-39.731922-151.703704-39.731922-218.525573 0-68.627866 39.731922-110.165785 111.971781-110.165785 189.62963z m0 0" p-id="4904"></path></svg>