<?xml version="1.0" standalone="no"?>
<!DOCTYPE svg PUBLIC "-//W3C//DTD SVG 1.1//EN" "http://www.w3.org/Graphics/SVG/1.1/DTD/svg11.dtd"><svg t="1637495804549"
    class="icon" viewBox="0 0 1311 1024" version="1.1" xmlns="http://www.w3.org/2000/svg" p-id="13427"
    xmlns:xlink="http://www.w3.org/1999/xlink" width="61.453125" height="48">
    <defs>
        <style type="text/css"></style>
    </defs>
    <path
        d="M1273.10336 356.90496L956.60544 38.15424C932.16256 13.55264 899.76832 0 865.36192 0c-34.2016 0-66.53952 13.5424-90.99264 38.05184l-152.94464 151.77728-0.1024 0.1024a20.46976 20.46976 0 0 0-0.01536 28.93824 20.4288 20.4288 0 0 0 8.94464 5.26336c9.81504 4.75136 56.48384 31.92832 67.75296 40.26368 32.10752 23.61344 43.23328 86.07744 9.97376 134.39488-19.01056 27.78624-63.7184 49.07008-96.91648 44.47232-22.69184-3.1744-95.62624-45.80864-123.0848-61.86496-23.73632-13.88544-24.65792-14.4128-31.0272-14.4128a20.64384 20.64384 0 0 0-14.56128 6.0416L331.9296 483.84c-24.31488 24.50432-37.7088 57.11872-37.7088 91.8272 0 34.34496 28.16 62.01344 50.76992 84.25984l323.5584 326.09792C692.9408 1010.52416 725.3504 1024 759.808 1024c34.47296 0 66.85184-13.50144 91.53536-38.33344l421.80096-445.46048c50.00704-50.44736 50.00704-132.67456-0.03584-183.296z m-29.3888 154.79296l-421.79072 445.43488c-16.60928 16.71168-38.66624 25.9072-62.12096 25.9072a87.24992 87.24992 0 0 1-62.21312-25.8816L381.32224 638.2592l-7.6288-7.54176c-16.25088-15.96928-38.51776-37.88288-38.51776-55.04512 0-23.83872 9.18016-46.20288 25.78432-62.94016l99.57376-99.92192c2.06848 1.21344 4.32128 2.53952 6.77888 3.95776 51.968 30.37184 109.7472 63.12448 138.14272 67.072 48.51712 6.73792 108.64128-21.4272 136.31488-61.87008 42.92096-62.3616 33.78688-151.42912-19.44064-190.52544-0.4096-0.28672-27.88864-18.432-52.20352-32.22016l133.17632-132.1728C820.07552 50.23232 842.11712 40.96 865.3568 40.96c23.41888 0 45.49632 9.25696 62.1568 26.05056l316.48768 318.70976c34.29376 34.7136 34.31936 91.05408-0.29184 125.9776z m0 0zM91.66848 352.3584H30.6432C13.45024 352.3584 0 367.85664 0 387.64544v339.0208c0 19.78368 13.45536 35.28704 30.63808 35.28704h61.0304c17.14176 0 30.57152-15.50336 30.57152-35.28704V387.70176c0.0256-10.33216-3.7632-20.08576-10.3936-26.74176-5.5296-5.5552-12.68224-8.6016-20.1728-8.6016z m-10.3936 368.64H40.96v-327.68h40.32512v327.68z m0 0z m223.60064-88.82176c-39.76192-49.93024-28.05248-98.88256-4.95104-126.80192L462.29504 340.2752l104.50944 71.9872c16.83456 9.95328 35.5328 15.23712 54.04672 15.23712 34.14016 0 63.20128-17.29024 77.76768-46.24384 22.6048-44.91264 1.83296-104.59136-46.35136-133.0176l-185.344-109.07648c-35.30752-20.80768-79.872-19.20512-108.66688 3.36384a20.88448 20.88448 0 0 0-3.8912 2.67776L166.58944 310.00576c-2.8672 2.4576-28.07808 24.79616-28.07808 55.84384v356.48c0 31.49824 24.43264 57.1392 54.4768 57.1392h205.4912a20.46976 20.46976 0 1 0 14.76608-34.67264l-108.35968-112.6144zM192.98816 738.5088c-7.45472 0-13.5168-7.24992-13.5168-16.1792V365.8752c0-10.3424 10.19392-21.62688 13.90592-24.8576L378.368 178.6624c1.21344-0.6656 2.33984-1.48992 3.42528-2.43712 15.60064-13.69088 42.49088-14.6432 64.36352-1.75616l185.344 109.07648c29.96224 17.67424 43.68896 53.248 30.5408 79.32416-7.45984 14.82752-22.8608 23.69024-41.1648 23.69024-11.1872 0-22.66112-3.29216-31.99488-8.76544L471.40864 296.82176c-8.192-5.6832-19.2512-4.608-26.2144 2.48832L269.6192 477.952c-32.95232 39.66464-51.87584 110.5408 4.5312 181.1968l76.28288 79.36H192.98816z m0 0z m691.51232-326.72256l16.71168 16.88064c7.7312 9.84064 5.37088 21.73952-7.02976 35.61984-13.01504 11.26912-24.8064 12.60544-35.37408 3.94752l-15.52384-15.68256-10.68032 10.5728c-1.67424 6.44096-3.712 15.616-6.03648 27.46368-11.4176 49.51552-20.48 75.9808-27.15136 79.40096-14.2592 14.11584-26.54208 15.8976-36.87936 5.4528-4.77184-4.82816-5.38624-14.592-1.78688-29.2864 1.65888-6.43072 2.72896-11.4688 3.1744-15.09376l-134.2976 132.92032c-12.00128 10.27584-23.26016 11.07968-33.83808 2.44224-9.344-11.45856-8.80128-23.15264 1.60256-35.01056l126.6688-125.3632c-42.9312 21.77536-68.01408 25.89696-75.3152 12.43648-12.65664-20.8896-0.78848-37.4272 35.57888-49.52064 1.00864-1.00352 2.42688-1.62304 4.25984-1.82272 34.0736-8.28416 73.728-25.20576 118.8864-50.80576l-25.07264-25.344c-6.95296-9.0368-3.80416-20.1216 9.41056-33.20832 13.0048-11.27936 23.99232-13.39392 32.97792-6.36928l27.45856 27.7504 35.0976-34.74432a175.07328 175.07328 0 0 0-20.6336-17.792c-11.15648-11.26912-10.5216-23.84384 1.93536-37.72928 13.21984-13.0816 25.91232-14.5152 38.06208-4.25472 31.488 27.73504 56.82176 47.24736 76.02176 58.50624 13.17888 9.25184 15.37024 20.60288 6.5536 34.11456-11.6224 14.68928-24.69376 18.83648-39.07072 12.41088-10.21952-4.20352-18.90816-9.94816-26.07616-17.19296l-39.67488 39.26016 0.04096 0.04096z m88.96 62.40768c-3.18464-3.22048-0.16384-13.39392 9.09312-30.51008-1.01376 1.00352-0.4096-0.4096 1.8688-4.23936 3.70176-8.45312 7.6288-18.70848 11.80672-30.78656 4.94592-11.27424 8.96-18.42176 12.00128-21.43232 6.10816-6.0416 13.07648-8.15616 20.89984-6.36928 9.42592 3.4048 15.50848 8.5504 18.24256 15.37536 2.29376 10.45504-1.13664 27.37664-10.22464 50.71872-14.08 34.6112-28.544 50.53952-43.38176 47.72864l39.3984 39.808c-1.9456-6.0416 2.86208-12.38016 14.39744-19.03104 1.792-0.2048 5.03296-1.03424 9.68192-2.42688 13.9264-4.224 35.84512-11.58144 65.75616-22.08768 14.94016-5.2224 24.66304-0.50688 29.1328 14.16704 1.05472 13.28128-5.60128 23.84384-19.97312 31.71328-29.5424 14.92992-53.8112 22.99904-72.71424 24.21248l7.15776 7.23456c14.32064 14.47424 12.34944 30.7712-5.98528 48.91648l-79.36 78.5408c-20.56192 21.93408-37.93408 24.7808-52.0192 8.48896l-17.90464-18.09408-88.5248 87.61344c-5.31456 6.84544-6.89664 12.40576-4.7104 16.60416l7.16288 7.23456c4.31616 8.45824 23.69024-3.55328 58.05568-35.95776 11.99104-10.2912 23.14752-10.18368 33.48992 0.26624 6.71232 10.88512 4.49024 21.82656-6.71232 32.91136-34.3552 32.42496-60.45696 51.8656-78.22336 58.3168-17.792 6.4512-33.8432 2.44224-48.17408-12.032l-16.70656-16.88576c-18.0992-20.29568-16.3328-41.96352 5.24288-64.896l106.81856-105.728-14.32576-14.47424c-70.43072 71.29088-138.5472 98.09408-204.3392 80.45056-20.09088-4.0192-28.1088-15.1808-24.08448-33.4848 8.44288-17.90464 22.31296-25.28768 41.60512-22.0672 48.89088 16.87552 100.44928-2.304 154.58304-57.46688l-9.55392-9.6512c-14.32576-14.47424-12.34944-30.7712 5.98528-48.91648l82.4064-81.55648c18.3552-18.14528 35.45088-19.16416 51.3792-3.072l10.752 10.86464z m33.88416 128.84992c5.07904-5.02784 5.64736-9.56928 1.664-13.5936l-70.44096-71.168c-3.98336-4.03456-8.51968-3.52768-13.61408 1.51552l-42.73152 42.2912c-5.0944 5.0432-5.66272 9.55392-1.664 13.59872l70.44608 71.17312c4.77184 4.82304 8.78592 4.80256 12.07808-0.01536l44.2624-43.8016z m0 0"
        fill="#1296db" p-id="13428"></path>
</svg>
