<?xml version="1.0" standalone="no"?><!DOCTYPE svg PUBLIC "-//W3C//DTD SVG 1.1//EN" "http://www.w3.org/Graphics/SVG/1.1/DTD/svg11.dtd"><svg t="1602768383333" class="icon" viewBox="0 0 1024 1024" version="1.1" xmlns="http://www.w3.org/2000/svg" p-id="4467" xmlns:xlink="http://www.w3.org/1999/xlink" width="200" height="200"><defs><style type="text/css"></style></defs><path d="M511.097002 0l444.275132 204.077601v308.825397c0 186.017637-108.359788 355.781305-278.123457 433.439154l-166.151675 75.851852-166.151676-75.851852c-169.763668-77.657848-278.123457-247.421517-278.123457-433.439154V204.077601L511.097002 0z m-66.82187 272.705467l34.313933 272.705468h68.627866l34.313933-272.705468h-137.255732zM511.097002 614.038801c-25.283951 0-46.955908 12.641975-59.597884 34.313933a66.821869 66.821869 0 0 0 0 68.627866c12.641975 21.671958 34.313933 34.313933 59.597884 34.313933 37.925926 0 68.627866-30.70194 68.627866-68.627866S549.022928 614.038801 511.097002 614.038801z m0 0" p-id="4468"></path></svg>