<?xml version="1.0" standalone="no"?><!DOCTYPE svg PUBLIC "-//W3C//DTD SVG 1.1//EN" "http://www.w3.org/Graphics/SVG/1.1/DTD/svg11.dtd"><svg t="1603693546322" class="icon" viewBox="0 0 1024 1024" version="1.1" xmlns="http://www.w3.org/2000/svg" p-id="1849" xmlns:xlink="http://www.w3.org/1999/xlink" width="200" height="200"><defs><style type="text/css"></style></defs><path d="M1018.582011 373.84127l-28.895944-191.435626c-12.641975-72.239859-75.851852-135.449735-148.091711-148.091711L650.15873 3.611993c-9.029982 0-18.059965-3.611993-30.70194-3.611993-59.597884 0-122.80776 25.283951-160.733686 63.209877L45.149912 474.977072c-59.597884 59.597884-59.597884 157.121693 0 216.719577l285.347442 285.347443c28.895944 28.895944 68.627866 46.955908 110.165785 46.955908 43.343915 0 81.269841-16.253968 110.165785-46.955908l411.767196-411.767196c46.955908-55.985891 68.627866-119.195767 55.985891-191.435626z m-251.03351-50.567901c-46.955908 0-84.881834-37.925926-84.881834-84.881835s37.925926-84.881834 84.881834-84.881834 84.881834 37.925926 84.881834 84.881834-37.925926 84.881834-84.881834 84.881835z m0 0" p-id="1850"></path></svg>