<?xml version="1.0" standalone="no"?><!DOCTYPE svg PUBLIC "-//W3C//DTD SVG 1.1//EN" "http://www.w3.org/Graphics/SVG/1.1/DTD/svg11.dtd"><svg t="1602768349102" class="icon" viewBox="0 0 1024 1024" version="1.1" xmlns="http://www.w3.org/2000/svg" p-id="4079" xmlns:xlink="http://www.w3.org/1999/xlink" width="200" height="200"><defs><style type="text/css"></style></defs><path d="M52.373898 447.887125L54.179894 957.178131l-25.28395 1.805996 3.611993 63.209877 93.911816-1.805997V469.559083l344.945326-101.135803 7.223986 651.964727h252.839506l-5.417989-57.791887h-50.567901l-7.223986-614.038801-119.195767-59.597883-153.5097 48.761904 5.417989-111.971781L738.652557 90.299824l9.029983 926.47619h247.421516l-1.805996-54.179894h-50.567901L939.118166 84.881834 828.952381 0 335.915344 178.793651l-1.805997 175.181658" p-id="4080"></path><path d="M166.151675 514.708995l247.421517-65.015873 7.223986 86.68783L173.375661 614.038801l-7.223986-99.329806z m1.805997 142.673721l1.805996 79.463845 251.03351-39.731923-1.805996-106.553791-251.03351 66.821869z m1.805996 142.673721l240.197531-45.149911 5.41799 102.941799-242.003528 25.28395-3.611993-83.075838z m0 128.22575l243.809524-3.611993 1.805997 83.075838-249.227514 9.029982 3.611993-88.493827z m0 0" p-id="4081"></path></svg>