<?xml version="1.0" standalone="no"?><!DOCTYPE svg PUBLIC "-//W3C//DTD SVG 1.1//EN" "http://www.w3.org/Graphics/SVG/1.1/DTD/svg11.dtd"><svg t="1602325021000" class="icon" viewBox="0 0 1024 1024" version="1.1" xmlns="http://www.w3.org/2000/svg" p-id="5029" xmlns:xlink="http://www.w3.org/1999/xlink" width="200" height="200"><defs><style type="text/css"></style></defs><path d="M953.566138 731.428571c-34.313933-32.507937-74.045855-50.567901-122.807761-50.567901-46.955908 0-88.493827 18.059965-122.80776 50.567901-32.507937 32.507937-50.567901 74.045855-50.567901 121.001764 0 46.955908 16.253968 88.493827 50.567901 121.001764 32.507937 34.313933 74.045855 50.567901 122.80776 50.567901 46.955908 0 88.493827-16.253968 122.807761-50.567901 32.507937-32.507937 50.567901-74.045855 50.567901-121.001764 0-48.761905-18.059965-88.493827-50.567901-121.001764z m-7.223986 74.045856l-126.419753 124.613756c-9.029982 9.029982-23.477954 9.029982-32.507937 0l-72.239859-72.239858c-21.671958-19.865961 10.835979-54.179894 32.507937-32.507937l55.98589 55.985891 110.165785-108.359789c9.029982-10.835979 23.477954-9.029982 32.507937 0 10.835979 9.029982 10.835979 25.283951 0 32.507937z m-800.056438-108.359789l216.719577-41.537918v-106.553792l-216.719577 55.98589v92.10582z m0 158.92769l216.719577-19.865961v-106.553792l-216.719577 36.119929v90.299824z m0 160.733686h216.719577v-111.971781l-216.719577 14.447972v97.523809z m0-484.007055l216.719577-57.791887v-110.165785l-216.719577 70.433863v97.523809z m740.458554 113.777778V115.583774L749.488536 0 294.377425 164.345679v41.537919l413.573192-135.449736v605.008819c36.119929-25.283951 75.851852-37.925926 121.001764-37.925926 19.865961 0 39.731922 3.611993 57.791887 9.029982z m0 0" p-id="5030"></path><path d="M19.865961 346.751323v671.830688h61.40388V379.259259l344.945327-110.165785v745.876544h178.79365v-758.518519l-122.80776-72.239859-462.335097 162.539683z m0 0" p-id="5031"></path></svg>