<?xml version="1.0" standalone="no"?><!DOCTYPE svg PUBLIC "-//W3C//DTD SVG 1.1//EN" "http://www.w3.org/Graphics/SVG/1.1/DTD/svg11.dtd"><svg t="1602321719566" class="icon" viewBox="0 0 1024 1024" version="1.1" xmlns="http://www.w3.org/2000/svg" p-id="1701" xmlns:xlink="http://www.w3.org/1999/xlink" width="200" height="200"><defs><style type="text/css"></style></defs><path d="M998.646357 747.722105c-10.834427-9.028689-25.28033-14.445903-39.726233-14.445903-32.503282 1.805738-61.395088 12.640165-88.481156 30.697544-93.898369 57.783612-146.264768 88.481156-202.242642 88.481156-34.30902-1.805738-68.618039-9.028689-99.315583-23.474592-54.172136-21.668854-90.286894-36.114757-110.15001-46.949185-9.028689-3.611476-16.251641-9.028689-23.474593-16.251641l-12.640165-12.640165 14.445903-21.668854 7.222952-1.805738c7.222951-1.805738 16.251641-3.611476 23.474592-3.611476 39.726233 3.611476 77.646729 12.640165 115.567224 25.28033 18.057379 5.417214 36.114757 10.834427 50.56066 14.445903 9.028689 1.805738 18.057379 3.611476 28.891806 3.611476 43.337709 0 77.646729-27.086068 77.646729-63.200826s-32.503282-63.200826-84.86968-75.84099c-25.28033-5.417214-48.754923-12.640165-74.035253-19.863117-48.754923-16.251641-97.509845-25.28033-148.070505-27.086068-19.863117 0-39.726233 1.805738-59.58935 5.417214-86.675418 12.640165-207.659855 77.646729-343.090196 180.573787-3.611476 1.805738-5.417214 5.417214-9.02869 7.222951l-9.028689 5.417214c-3.611476 63.200826 84.86968 196.825428 144.45903 214.882807 3.611476-1.805738 5.417214-1.805738 9.028689-3.611476h1.805738c54.172136-18.057379 110.15001-27.086068 167.933622-27.086068 37.920495 1.805738 75.840991 10.834427 110.150011 23.474592 55.977874 19.863117 115.567224 32.503282 175.156573 34.30902 117.372962 0 200.436904-63.200826 267.249206-111.955748 19.863117-14.445903 39.726233-28.891806 59.589349-41.531971 39.726233-23.474592 63.200826-55.977874 63.200826-88.481156 0-14.445903-3.611476-25.28033-12.640165-34.30902z m0 0" p-id="1702"></path><path d="M458.730733 782.031125c-9.028689-3.611476-16.251641-9.028689-23.474593-16.251641l-12.640165-12.640165 14.445903-21.668854 7.222952-1.805738c7.222951-3.611476 16.251641-3.611476 23.474592-3.611476 39.726233 3.611476 77.646729 12.640165 115.567224 25.28033 18.057379 5.417214 36.114757 10.834427 50.56066 14.445903 9.028689 1.805738 18.057379 3.611476 28.891806 3.611476 43.337709 0 77.646729-27.086068 77.646729-63.200826s-32.503282-63.200826-84.86968-75.84099c-25.28033-5.417214-50.56066-12.640165-74.035253-19.863117-48.754923-16.251641-97.509845-25.28033-148.070505-27.086068-19.863117 0-39.726233 1.805738-59.58935 5.417214-57.783612 10.834427-115.567224 32.503282-166.127885 63.200825 77.646729 111.955748 205.854118 178.768049 341.284458 178.76805 10.834427 0 21.668854 0 30.697544-1.805738l-9.028689-3.611476c-55.977874-18.057379-90.286894-32.503282-111.955748-43.337709z m0 0" p-id="1703"></path><path d="M444.28483 545.479464H433.450403c-21.668854 0-43.337709 1.805738-66.812302 5.417213-63.200826 12.640165-124.595913 36.114757-180.573787 68.618039-83.063942-146.264768-68.618039-330.450031 36.114757-462.268895C326.911868 25.426956 502.068442-30.550918 664.58485 16.398267c162.516409 46.949185 279.88937 185.991001 297.946749 353.924623s-66.812301 330.450031-214.882807 411.708235c21.668854-18.057379 34.30902-45.143447 34.30902-74.035253 0-54.172136-45.143447-99.315583-117.372962-115.567224-25.28033-5.417214-173.350836-46.949185-220.30002-46.949184zM632.081569 178.914675c-7.222951 18.057379-16.251641 37.920495-27.086069 57.783612h-32.503281l16.251641-10.834427c-10.834427-16.251641-21.668854-32.503282-34.30902-48.754923L521.931558 198.777792c9.028689 12.640165 18.057379 25.28033 25.280331 37.920495h-34.30902v128.207389H541.794675c0 27.086068-3.611476 45.143447-10.834427 55.977874-7.222951 12.640165-21.668854 25.28033-45.143447 37.920496 10.834427 10.834427 19.863117 21.668854 30.697544 34.309019 27.086068-18.057379 45.143447-34.30902 52.366398-52.366398 7.222951-14.445903 10.834427-39.726233 10.834427-74.035253h19.863117v81.258204c0 27.086068 12.640165 39.726233 37.920495 39.726234h16.251641c21.668854 0 34.30902-9.028689 37.920495-27.086068 1.805738-7.222951 3.611476-21.668854 7.222952-43.337709l-37.920495-16.251641c-1.805738 14.445903-1.805738 25.28033-3.611476 36.114757-1.805738 7.222951-3.611476 10.834427-9.02869 10.834427h1.805738c-5.417214 0-9.028689-3.611476-9.028689-10.834427v-70.423777h41.531971v-128.207389h-36.114757c7.222951-10.834427 16.251641-25.28033 25.28033-41.531971l-39.726233-18.057379zM388.306956 388.380269c7.222951 19.863117 12.640165 36.114757 16.251641 50.56066 9.028689-12.640165 19.863117-30.697544 28.891806-50.56066V487.695852h39.726233v-119.1787c7.222951 5.417214 14.445903 12.640165 21.668854 18.057379l18.057379-34.30902c-10.834427-7.222951-25.28033-16.251641-39.726233-25.28033v-16.251641h34.309019V271.007307h-34.309019v-41.531971c10.834427-1.805738 23.474592-3.611476 34.309019-5.417214l-7.222951-37.920495c-34.30902 5.417214-70.423777 9.028689-108.344273 12.640165 1.805738 7.222951 1.805738 19.863117 5.417214 37.920495 12.640165-1.805738 23.474592-1.805738 36.114758-3.611475v36.114757h-41.531972v39.726233h39.726234c-12.640165 32.503282-27.086068 59.58935-43.337709 79.452467z m254.60904-61.395088h-90.286894v-50.56066h90.286894v50.56066z m0 0" p-id="1704"></path></svg>