<?xml version="1.0" standalone="no"?><!DOCTYPE svg PUBLIC "-//W3C//DTD SVG 1.1//EN" "http://www.w3.org/Graphics/SVG/1.1/DTD/svg11.dtd"><svg t="1602768062684" class="icon" viewBox="0 0 1024 1024" version="1.1" xmlns="http://www.w3.org/2000/svg" p-id="3823" xmlns:xlink="http://www.w3.org/1999/xlink" width="200" height="200"><defs><style type="text/css"></style></defs><path d="M388.775235 269.093474l-1.805996-1.805996c-14.447972-10.835979-36.119929-9.029982-50.567901 7.223986-12.641975 12.641975-14.447972 34.313933-3.611993 50.567901l1.805996 1.805997c-45.149912-48.761905-43.343915-128.22575 7.223986-173.375662 16.253968-16.253968 37.925926-25.283951 59.597884-30.70194 10.835979 7.223986 21.671958 14.447972 30.70194 23.477954l39.731922 43.343916 133.643739 139.061728c21.671958 23.477954 21.671958 59.597884-1.805996 81.269841-23.477954 21.671958-59.597884 21.671958-81.269842-1.805996l-1.805996-1.805997-7.223986-7.223986-124.613757-130.031746z m0 0c1.805996 0 1.805996 0 0 0z m57.791887 57.791888l-9.029982-9.029983 9.029982 9.029983z m-72.239859 45.149911c0-3.611993 1.805996-3.611993 0 0l66.82187 63.209877c-1.805996 0-1.805996 1.805996-1.805996 1.805996L219.011567 677.248677l-63.209877-68.627866 218.525573-236.585538zM966.694107 178.793651c90.299824 83.075838 61.40388 247.421517-3.611993 326.885361L730.108569 754.906526s0 1.805996-1.805997 1.805996l-153.5097 171.569665c-14.447972 16.253968-77.657848 39.731922-126.419753-9.029982l218.525573-234.779542c10.835979-12.641975 10.835979-32.507937-1.805996-43.343915-14.447972-9.029982-32.507937-9.029982-43.343916 3.611993L406.8352 874.102293l-50.567901-54.179894 214.91358-234.779542c10.835979-12.641975 10.835979-32.507937-1.805996-43.343915-12.641975-10.835979-32.507937-10.835979-43.343916 1.805996L312.923383 776.578483l-19.865961-21.671957-1.805996-1.805997-32.507937-34.313933 220.33157-236.585538c46.955908 45.149912 121.001764 45.149912 167.957672 0 48.761905-46.955908 54.179894-124.613757 7.223986-175.181658l-106.553792-113.777777 37.925926-39.731923c83.075838-90.299824 238.391534-108.359788 326.885361-25.28395l54.179895 50.567901zM340.013331 153.5097c-48.761905 46.955908-54.179894 124.613757-7.223986 173.375662l-1.805997 1.805996-218.525573 234.779541-50.567901-55.98589C-6.737992 431.633157-32.021943 263.675485 58.277881 180.599647l55.98589-50.567901c77.657848-70.433862 200.465608-66.821869 288.959436-9.029982h-1.805996c-25.283951 5.417989-45.149912 16.253968-61.40388 32.507936z m0 0" p-id="3824"></path></svg>