<svg t="1637551506164" class="icon" viewBox="0 0 1024 1024" version="1.1" xmlns="http://www.w3.org/2000/svg" p-id="8556"
    width="200" height="200">
    <path
        d="M768 186.666667c36.266667 0 66.048 27.861333 69.077333 63.36l0.256 5.973333v342.613333a26.666667 26.666667 0 0 1-53.034666 3.925334l-0.298667-3.925334V256a16 16 0 0 0-12.8-15.658667L768 240H256a16 16 0 0 0-15.658667 12.8L240 256v512c0 7.722667 5.504 14.165333 12.8 15.658667l3.2 0.341333h171.349333a26.666667 26.666667 0 0 1 3.925334 53.034667l-3.925334 0.298666H256c-36.266667 0-66.048-27.861333-69.077333-63.36L186.666667 768V256c0-36.266667 27.861333-66.048 63.36-69.077333L256 186.666667h512z"
        p-id="8557"></path>
    <path
        d="M725.333333 186.666667a112 112 0 0 1 111.786667 104.917333l0.213333 7.082667v298.965333a26.666667 26.666667 0 0 1-53.034666 3.925333l-0.298667-3.925333V298.666667c0-30.506667-23.253333-55.552-53.034667-58.410667L725.333333 240H298.666667c-30.506667 0-55.552 23.253333-58.410667 53.034667L240 298.666667v426.666666c0 30.506667 23.253333 55.552 53.034667 58.410667l5.632 0.256h128.341333a26.666667 26.666667 0 0 1 3.968 53.034667l-3.968 0.298666H298.666667a112 112 0 0 1-111.786667-104.917333L186.666667 725.333333V298.666667a112 112 0 0 1 104.917333-111.786667L298.666667 186.666667h426.666666z"
        p-id="8558"></path>
    <path
        d="M619.306667 706.474667a26.666667 26.666667 0 0 1 34.048-3.072l3.669333 3.072 66.474667 66.474666 66.474666-66.474666a26.666667 26.666667 0 0 1 34.048-3.072l3.669334 3.072a26.666667 26.666667 0 0 1 3.114666 34.005333l-3.114666 3.712-85.333334 85.333333a26.666667 26.666667 0 0 1-34.005333 3.072l-3.712-3.072-66.474667-66.517333-66.474666 66.517333a26.666667 26.666667 0 0 1-34.005334 3.072l-3.712-3.072a26.666667 26.666667 0 0 1-3.072-34.005333l3.072-3.712 85.333334-85.333333zM647.168 325.376a25.6 25.6 0 0 1 6.826667 32.426667l-2.304 3.498666-79.829334 102.570667H631.466667a25.6 25.6 0 0 1 4.138666 50.901333l-4.138666 0.341334-93.866667-0.042667v42.752h81.578667a25.6 25.6 0 0 1 4.138666 50.901333l-4.138666 0.341334-81.578667-0.042667V652.8a25.6 25.6 0 0 1-50.858667 4.138667L486.4 652.8v-43.776H404.864a25.6 25.6 0 0 1-4.181333-50.816l4.181333-0.341333 81.536-0.042667v-42.752H392.533333a25.6 25.6 0 0 1-4.138666-50.816l4.138666-0.341333 59.562667-0.042667-79.786667-102.570667a25.6 25.6 0 0 1 37.632-34.474666l2.816 3.072L512 457.472l99.242667-127.573333a25.6 25.6 0 0 1 35.925333-4.522667z"
        p-id="8559"></path>
</svg>
