<?xml version="1.0" standalone="no"?><!DOCTYPE svg PUBLIC "-//W3C//DTD SVG 1.1//EN" "http://www.w3.org/Graphics/SVG/1.1/DTD/svg11.dtd"><svg t="1602325052502" class="icon" viewBox="0 0 1024 1024" version="1.1" xmlns="http://www.w3.org/2000/svg" p-id="5282" xmlns:xlink="http://www.w3.org/1999/xlink" width="200" height="200"><defs><style type="text/css"></style></defs><path d="M626.680776 619.45679l1.805996-3.611993c12.641975-16.253968 81.269841-92.10582 202.271605-50.567901 128.22575 46.955908 101.135802 139.061728 97.52381 148.091711h1.805996c14.447972 3.611993 93.911817 28.895944 92.105821 122.80776v3.611993c0 93.911817-77.657848 113.777778-95.717814 117.389771H390.095238s-102.941799-21.671958-102.941799-142.673722 121.001764-135.449735 162.539683-122.80776v-3.611993c-1.805996-14.447972-5.417989-74.045855 65.015873-93.911816l3.611993-1.805997c3.611993 1.805996 65.015873-12.641975 108.359788 27.089947zM1.805996 608.620811c0-37.925926 32.507937-41.537919 41.537919-41.537919h399.125221c-34.313933 21.671958-43.343915 66.821869-43.343916 66.82187-88.493827 21.671958-164.345679 83.075838-169.763668 171.569665-1.805996 52.373898 14.447972 104.747795 45.149912 148.091711l3.611993 3.611993H46.955908C5.417989 957.178131 3.611993 919.252205 3.611993 915.640212v-307.019401zM704.338624 317.855379c27.089947 0 50.567901 18.059965 52.373898 41.537919v104.747795c0 23.477954-21.671958 43.343915-48.761905 45.149912H52.373898C25.283951 509.291005 1.805996 487.619048 0 467.753086V361.199295c0-23.477954 21.671958-43.343915 48.761905-43.343916H704.338624zM108.359788 364.811287c-25.283951 0-48.761905 19.865961-48.761904 46.955909 0 25.283951 23.477954 46.955908 48.761904 46.955908 25.283951 0 48.761905-19.865961 48.761905-46.955908 0-12.641975-5.417989-25.283951-14.447972-34.313933s-21.671958-12.641975-34.313933-12.641976zM0 108.359788c0-27.089947 21.671958-45.149912 48.761905-45.149911H704.338624c27.089947 0 50.567901 18.059965 52.373898 41.537918v104.747796c0 23.477954-21.671958 43.343915-48.761905 45.149912H52.373898c-27.089947 0-50.567901-18.059965-52.373898-41.537919V108.359788z m108.359788 0C83.075838 108.359788 59.597884 130.031746 59.597884 155.315697c0 25.283951 23.477954 46.955908 48.761904 46.955908 25.283951 0 48.761905-19.865961 48.761905-46.955908 0-12.641975-5.417989-25.283951-14.447972-34.313933C133.643739 113.777778 121.001764 108.359788 108.359788 108.359788z m0 0" p-id="5283"></path></svg>