<?xml version="1.0" standalone="no"?><!DOCTYPE svg PUBLIC "-//W3C//DTD SVG 1.1//EN" "http://www.w3.org/Graphics/SVG/1.1/DTD/svg11.dtd"><svg t="1602768372689" class="icon" viewBox="0 0 1024 1024" version="1.1" xmlns="http://www.w3.org/2000/svg" p-id="4339" xmlns:xlink="http://www.w3.org/1999/xlink" width="200" height="200"><defs><style type="text/css"></style></defs><path d="M397.521127 843.71831L166.760563 713.915493c-7.211268-1.802817-14.422535 0-19.830986 5.408451l-97.352112 156.84507-1.802817 5.408451v3.605634c0 7.211268 5.408451 12.619718 14.422535 12.619718l131.605634 7.211268c5.408451 0 7.211268 1.802817 9.014084 5.40845l81.126761 108.169014c7.211268 7.211268 19.830986 7.211268 23.43662 0l93.746479-153.239436c5.408451-9.014085 3.605634-16.225352-3.605634-21.633803zM891.492958 596.732394V246.985915c0-27.042254-14.422535-50.478873-36.056338-63.098591L545.352113 9.014085c-23.43662-12.619718-50.478873-12.619718-72.112676 0L164.957746 182.084507c-21.633803 12.619718-36.056338 36.056338-36.056338 61.295775v349.746479c0 25.239437 14.422535 48.676056 36.056338 61.295774L475.042254 829.295775c23.43662 12.619718 50.478873 12.619718 72.112676 0l308.28169-171.267606c21.633803-12.619718 36.056338-36.056338 36.056338-61.295775z m-183.887324-25.239436c-3.605634 5.408451-9.014085 7.211268-19.830986 7.211267H334.422535c-9.014085 0-16.225352-1.802817-19.830986-7.211267-3.605634-5.408451-5.408451-12.619718-3.605634-18.028169 0-7.211268 1.802817-14.422535 3.605634-18.028169 3.605634-3.605634 9.014085-7.211268 19.830986-7.211268h46.87324v-162.253521c0-9.014085 1.802817-16.225352 7.211267-19.830986 3.605634-3.605634 10.816901-5.408451 19.830986-5.408451 7.211268 0 12.619718 1.802817 18.028169 5.408451 5.408451 3.605634 7.211268 9.014085 7.211268 19.830986v162.253521h70.309859V322.704225c0-9.014085 1.802817-16.225352 7.211268-19.830986 5.408451-3.605634 12.619718-5.408451 18.028169-5.40845 7.211268 0 14.422535 1.802817 18.028169 5.40845 5.408451 3.605634 7.211268 9.014085 7.211267 19.830986v59.492958h108.169014c9.014085 0 16.225352 1.802817 19.830986 5.408451 3.605634 3.605634 5.408451 10.816901 5.408451 18.028169s-1.802817 14.422535-5.408451 18.028169c-3.605634 3.605634-10.816901 7.211268-18.028169 7.211267h-108.169014v95.549296h133.408451c9.014085 0 16.225352 1.802817 19.830986 7.211268 3.605634 3.605634 5.408451 10.816901 5.40845 18.028169-1.802817 9.014085-3.605634 16.225352-7.211267 19.830986z m7.211267-234.366197c-3.605634 7.211268-7.211268 12.619718-14.422535 14.422535-5.408451 1.802817-14.422535 1.802817-23.43662-1.802817l-37.859154-16.225352c-12.619718-5.408451-25.239437-12.619718-36.056338-21.633803-12.619718-9.014085-25.239437-18.028169-37.859155-28.84507-12.619718-10.816901-27.042254-23.43662-43.267606-39.661972-3.605634-3.605634-7.211268-5.408451-9.014085-5.408451-3.605634 0-5.408451 1.802817-9.014084 5.408451-21.633803 23.43662-45.070423 43.267606-70.309859 61.295774-27.042254 19.830986-55.887324 34.253521-88.338028 46.87324-9.014085 3.605634-16.225352 5.408451-23.43662 3.605634-7.211268-1.802817-10.816901-9.014085-14.422535-18.028169-1.802817-9.014085-1.802817-14.422535 1.802817-19.830986 3.605634-5.408451 7.211268-9.014085 14.422535-12.619719l43.267605-21.633802c14.422535-7.211268 27.042254-14.422535 39.661972-23.43662 12.619718-9.014085 25.239437-18.028169 36.056338-28.845071 12.619718-10.816901 23.43662-23.43662 36.056338-36.056338 5.408451-5.408451 10.816901-9.014085 14.422536-12.619718 5.408451-1.802817 10.816901-3.605634 16.225352-3.605634 10.816901 0 19.830986 5.408451 30.647887 14.422535 16.225352 16.225352 32.450704 28.84507 45.070423 41.464789 14.422535 10.816901 27.042254 21.633803 39.661971 28.845071 21.633803 14.422535 45.070423 27.042254 70.309859 36.056338 10.816901 3.605634 16.225352 9.014085 19.830986 16.225352 3.605634 9.014085 3.605634 16.225352 0 21.633803zM972.619718 872.56338l-97.352112-156.84507c-5.408451-7.211268-12.619718-9.014085-19.830986-5.408451l-228.957747 129.802817c-7.211268 5.408451-9.014085 12.619718-5.40845 19.830986l93.746478 153.239437c5.408451 7.211268 16.225352 7.211268 23.43662 0l81.126761-106.366198c1.802817-1.802817 5.408451-5.408451 9.014084-5.40845l131.605634-7.211268c12.619718 1.802817 18.028169-10.816901 12.619718-21.633803z" p-id="4340"></path></svg>