<?xml version="1.0" standalone="no"?><!DOCTYPE svg PUBLIC "-//W3C//DTD SVG 1.1//EN" "http://www.w3.org/Graphics/SVG/1.1/DTD/svg11.dtd"><svg t="1602768367770" class="icon" viewBox="0 0 1024 1024" version="1.1" xmlns="http://www.w3.org/2000/svg" p-id="4208" xmlns:xlink="http://www.w3.org/1999/xlink" width="200" height="200"><defs><style type="text/css"></style></defs><path d="M400.931217 781.996473l-92.10582 214.91358 207.689594-104.747796-115.583774-110.165784z m0 0" p-id="4209"></path><path d="M391.901235 753.100529c3.611993-9.029982 9.029982-18.059965 16.253968-27.089947l379.259259-377.453263V75.851852c0-27.089947-21.671958-48.761905-48.761905-48.761905H48.761905C21.671958 27.089947 0 48.761905 0 75.851852v861.460317c0 27.089947 21.671958 48.761905 48.761905 48.761905h243.809524l97.523809-234.779541 1.805997 1.805996z m-204.077602-487.619048c-12.641975-23.477954-28.895944-48.761905-46.955908-75.851851L186.017637 162.539683c19.865961 27.089947 37.925926 50.567901 50.567901 72.239858M153.5097 487.619048c7.223986-9.029982 10.835979-19.865961 10.835979-32.507937V343.13933H122.80776v-50.567901H216.719577v139.061728l34.313933-23.477954c0 14.447972 1.805996 32.507937 5.417989 59.597883-28.895944 19.865961-52.373898 39.731922-74.045855 59.597884L153.5097 487.619048z m198.659612-5.41799c19.865961 0 37.925926 1.805996 50.567901 1.805997 7.223986 0 12.641975-1.805996 18.059965-5.41799 3.611993-3.611993 7.223986-10.835979 7.223986-21.671957s1.805996-41.537919 3.611993-93.911817h-83.075838c-1.805996 77.657848-23.477954 139.061728-65.015873 184.21164-19.865961-16.253968-36.119929-30.70194-48.761905-37.925926 18.059965-18.059965 30.70194-37.925926 39.731923-59.597883 9.029982-21.671958 14.447972-43.343915 16.253968-63.209877 1.805996-19.865961 3.611993-57.791887 3.611993-113.777778h-43.343915v-52.373897h99.329806c-3.611993-14.447972-9.029982-30.70194-16.253969-48.761905l57.791888-10.835979 16.253968 59.597884H505.679012v52.373897h-155.315696v36.11993H487.619048c-1.805996 93.911817-3.611993 149.897707-5.41799 166.151675-1.805996 16.253968-5.417989 30.70194-14.447972 39.731923-7.223986 9.029982-16.253968 16.253968-27.089947 18.059964-10.835979 1.805996-36.119929 3.611993-75.851852 3.611993-3.611993-19.865961-7.223986-39.731922-12.641975-54.179894z m0 0" p-id="4210"></path><path d="M1013.164021 330.497354l-57.791887-57.791887c-16.253968-16.253968-45.149912-12.641975-63.209877 5.41799L455.111111 715.174603c-19.865961 19.865961-21.671958 46.955908-5.417989 63.209877l57.791887 57.791887c16.253968 16.253968 45.149912 12.641975 63.209876-5.41799l435.24515-435.245149c19.865961-19.865961 23.477954-48.761905 7.223986-65.015874z m0 0" p-id="4211"></path><path d="M550.828924 890.356261l1.805997 1.805996-180.599648 95.717814h366.617284c27.089947 0 48.761905-21.671958 48.761905-48.761905V657.382716L563.470899 881.326279c-3.611993 3.611993-7.223986 5.417989-12.641975 9.029982z m0 0" p-id="4212"></path></svg>