<?xml version="1.0" standalone="no"?>
<!DOCTYPE svg PUBLIC "-//W3C//DTD SVG 1.1//EN" "http://www.w3.org/Graphics/SVG/1.1/DTD/svg11.dtd"><svg t="1637496072459"
    class="icon" viewBox="0 0 1102 1024" version="1.1" xmlns="http://www.w3.org/2000/svg" p-id="16050"
    xmlns:xlink="http://www.w3.org/1999/xlink" width="200" height="200">
    <defs>
        <style type="text/css"></style>
    </defs>
    <path d="M0 945.229838h1102.768144v78.769153H0z" fill="#1262B3" p-id="16051"></path>
    <path d="M590.768649 1023.998991H39.384577V0h551.384072zM118.15373 945.229838h393.845765V78.769153H118.15373z"
        fill="#1262B3" p-id="16052"></path>
    <path
        d="M1063.383567 1023.998991H511.999495V196.922883h551.384072z m-472.614918-78.769153h393.845765V275.692036H590.768649zM295.384324 157.538306h78.769153v630.153225h-78.769153z"
        fill="#1262B3" p-id="16053"></path>
    <path
        d="M756.516177 600.614793h78.769154v177.230594h-78.769154zM756.516177 817.229964h78.769154v78.769153h-78.769154z"
        fill="#FF584D" p-id="16054"></path>
    <path
        d="M787.691531 1023.998991a275.692036 275.692036 0 1 1 194.941347-80.75069A273.882807 273.882807 0 0 1 787.691531 1023.998991z m0-472.614919c-108.578355 0-196.922883 88.344528-196.922882 196.922883s88.344528 196.922883 196.922882 196.922883 196.922883-88.344528 196.922883-196.922883-88.344528-196.922883-196.922883-196.922883z"
        fill="#FF584D" p-id="16055"></path>
</svg>
