<?xml version="1.0" standalone="no"?><!DOCTYPE svg PUBLIC "-//W3C//DTD SVG 1.1//EN" "http://www.w3.org/Graphics/SVG/1.1/DTD/svg11.dtd"><svg t="1602321786508" class="icon" viewBox="0 0 1024 1024" version="1.1" xmlns="http://www.w3.org/2000/svg" p-id="1828" xmlns:xlink="http://www.w3.org/1999/xlink" width="200" height="200"><defs><style type="text/css"></style></defs><path d="M948.148148 223.943563L556.246914 10.835979c-25.283951-14.447972-57.791887-14.447972-83.075838 0L81.269841 223.943563c-28.895944 14.447972-46.955908 45.149912-46.955908 75.851851v418.991182c0 30.70194 16.253968 61.40388 43.343915 75.851852L469.559083 1011.358025c25.283951 14.447972 57.791887 14.447972 83.075838 0l391.901234-213.107584c27.089947-16.253968 43.343915-45.149912 43.343916-75.851852V301.601411c1.805996-30.70194-12.641975-59.597884-39.731923-77.657848z m-86.687831 471.365079L512.902998 884.938272 164.345679 695.308642V326.885362L512.902998 137.255732l348.557319 189.62963v368.42328z m0 0" p-id="1829"></path><path d="M494.843034 265.481481l-214.913581 106.553792c-14.447972 7.223986-23.477954 19.865961-25.28395 36.11993-1.805996 16.253968 7.223986 30.70194 19.865961 39.731922 12.641975 9.029982 30.70194 9.029982 45.149912 1.805997l195.047619-97.52381 198.659612 93.911817c21.671958 10.835979 46.955908 1.805996 57.791887-19.865961 10.835979-21.671958 1.805996-46.955908-19.865961-57.791888l-218.525574-102.941799c-12.641975-5.417989-27.089947-5.417989-37.925925 0z m0 0" p-id="1830"></path><path d="M693.502646 603.202822H559.858907v-37.925926h86.68783c23.477954 0 43.343915-19.865961 43.343916-43.343915 0-23.477954-19.865961-43.343915-43.343916-43.343916H559.858907v-41.537919c0-16.253968-9.029982-30.70194-21.671958-37.925926-12.641975-7.223986-30.70194-7.223986-43.343915 0s-21.671958 21.671958-21.671958 37.925926v164.345679h-43.343916v-92.10582c0-16.253968-9.029982-30.70194-21.671957-37.925926-12.641975-7.223986-30.70194-7.223986-43.343916 0S343.13933 493.037037 343.13933 509.291005v92.10582h-3.611993c-23.477954 0-43.343915 19.865961-43.343915 43.343916 0 23.477954 19.865961 43.343915 43.343915 43.343915h353.975309c23.477954 0 43.343915-19.865961 43.343915-43.343915 0-21.671958-19.865961-41.537919-43.343915-41.537919z m0 0" p-id="1831"></path></svg>