<?xml version="1.0" standalone="no"?><!DOCTYPE svg PUBLIC "-//W3C//DTD SVG 1.1//EN" "http://www.w3.org/Graphics/SVG/1.1/DTD/svg11.dtd"><svg t="1602321838514" class="icon" viewBox="0 0 1024 1024" version="1.1" xmlns="http://www.w3.org/2000/svg" p-id="1955" xmlns:xlink="http://www.w3.org/1999/xlink" width="200" height="200"><defs><style type="text/css"></style></defs><path d="M720.592593 511.097002c140.867725 0 256.451499 113.777778 256.451499 256.451499 0 140.867725-113.777778 256.451499-256.451499 256.451499-140.867725 0-256.451499-113.777778-256.4515-256.451499 1.805996-140.867725 115.583774-256.451499 256.4515-256.451499zM46.955908 715.174603c63.209877 70.433862 193.241623 122.80776 350.363316 135.449736 16.253968 66.821869 52.373898 126.419753 104.747795 173.375661h-28.895943c-251.03351 0-426.215168-101.135802-426.215168-191.435626v-117.389771z m758.518519-86.687831c-7.223986 21.671958-16.253968 43.343915-27.089947 63.209877h-34.313933l19.865961-9.029982c-7.223986-18.059965-16.253968-34.313933-27.089947-50.567902l-23.477954 10.835979c9.029982 14.447972 16.253968 30.70194 25.28395 48.761905h-32.507936v101.135802h27.089947c-3.611993 41.537919-18.059965 72.239859-45.149912 90.299824l14.447972 25.283951c34.313933-23.477954 52.373898-61.40388 55.985891-113.777778h21.671957v79.463845c0 19.865961 9.029982 28.895944 25.283951 28.895943H830.758377c9.029982 0 16.253968-1.805996 19.865962-7.223986 5.417989-5.417989 9.029982-23.477954 10.835978-52.373897l-25.28395-7.223986c0 19.865961-1.805996 32.507937-3.611993 37.925926-1.805996 3.611993-3.611993 5.417989-7.223986 5.417989h-10.835979c-3.611993 0-7.223986-3.611993-7.223986-9.029982v-74.045856h32.507937v-101.135802h-32.507937c9.029982-16.253968 18.059965-34.313933 25.283951-54.179894l-27.089947-12.641976zM686.27866 632.098765c-28.895944 9.029982-61.40388 14.447972-97.52381 18.059965l5.41799 27.089947c12.641975-1.805996 25.283951-1.805996 36.119929-5.417989v36.119929h-41.537919v27.089947h37.925926c-9.029982 30.70194-25.283951 57.791887-46.955908 81.269842l12.641975 32.507936c14.447972-19.865961 27.089947-43.343915 36.119929-66.821869V902.998236h27.089948v-122.80776c9.029982 12.641975 18.059965 27.089947 25.28395 41.537919l16.253968-23.477954c-12.641975-16.253968-27.089947-32.507937-41.537918-46.955908v-16.253969h34.313933v-27.089947h-34.313933V668.218695c12.641975-1.805996 25.283951-5.417989 36.119929-9.029982L686.27866 632.098765zM46.955908 502.067019c65.015873 74.045855 202.271605 126.419753 366.617284 137.255732-21.671958 54.179894-30.70194 110.165785-23.477954 167.957672-205.883598-19.865961-343.13933-108.359788-343.13933-187.823633v-117.389771z m767.548501 214.913581v50.567901h-81.269841v-50.567901h81.269841z m84.881834-429.827161v117.389771c0 18.059965-7.223986 37.925926-21.671957 55.985891C716.9806 381.065256 523.738977 440.663139 433.439153 595.978836c-229.361552-9.029982-386.483245-104.747795-386.483245-191.435626v-117.389771c72.239859 81.269841 236.585538 139.061728 426.215168 139.061729 189.62963 0 353.975309-57.791887 426.215167-139.061729zM473.171076 0c251.03351 0 426.215168 101.135802 426.215167 191.435626s-175.181658 191.435626-426.215167 191.435626S46.955908 281.73545 46.955908 191.435626 222.137566 0 473.171076 0z m0 0" p-id="1956"></path></svg>