<?xml version="1.0" standalone="no"?><!DOCTYPE svg PUBLIC "-//W3C//DTD SVG 1.1//EN" "http://www.w3.org/Graphics/SVG/1.1/DTD/svg11.dtd"><svg t="1602768386990" class="icon" viewBox="0 0 1024 1024" version="1.1" xmlns="http://www.w3.org/2000/svg" p-id="4595" xmlns:xlink="http://www.w3.org/1999/xlink" width="200" height="200"><defs><style type="text/css"></style></defs><path d="M511.097002 0C229.361552 0 0 229.361552 0 511.097002 0 794.638448 229.361552 1024 511.097002 1024 794.638448 1024 1024 794.638448 1024 511.097002 1022.194004 229.361552 792.832451 0 511.097002 0zM541.798942 812.698413h-90.299824v-90.299824h90.299824v90.299824z m106.553792-357.587302c-9.029982 18.059965-28.895944 37.925926-55.985891 65.015873-28.895944 27.089947-46.955908 46.955908-50.567901 59.597884-5.417989 10.835979-7.223986 30.70194-7.223986 59.597883l7.223986 23.477954h-90.299824l-1.805996-25.28395c1.805996-30.70194 7.223986-57.791887 14.447971-77.657848 9.029982-21.671958 28.895944-46.955908 57.791888-77.657849 27.089947-27.089947 43.343915-46.955908 48.761904-57.791887 5.417989-9.029982 7.223986-19.865961 7.223986-36.119929 0-21.671958-7.223986-39.731922-19.865961-52.373898-14.447972-12.641975-32.507937-19.865961-59.597884-19.865961-54.179894 0-72.239859 37.925926-77.657848 106.553792h-90.299824v-9.029983c1.805996-32.507937 5.417989-55.985891 12.641976-74.045855 7.223986-19.865961 19.865961-36.119929 36.119929-52.373898 18.059965-16.253968 36.119929-27.089947 57.791887-32.507936 19.865961-7.223986 41.537919-10.835979 63.209877-10.835979 46.955908 0 86.687831 14.447972 115.583774 41.537919 30.70194 27.089947 46.955908 65.015873 46.955908 111.971781 0 19.865961-5.417989 39.731922-14.447971 57.791887z m0 0" p-id="4596"></path></svg>